<svg xmlns="http://www.w3.org/2000/svg" xmlns:xlink="http://www.w3.org/1999/xlink" viewBox="0 0 760.69 551.2"><defs><style>.cls-1,.cls-2{fill:none;}.cls-10,.cls-2,.cls-3,.cls-4,.cls-5,.cls-6,.cls-7,.cls-8,.cls-9{stroke:#00329c;stroke-miterlimit:10;}.cls-3{fill:url(#New_Pattern_Swatch_4);}.cls-4{fill:#ff5c2c;}.cls-5{fill:#00329c;}.cls-6{fill:url(#New_Pattern_Swatch_4-119);}.cls-7{fill:url(#New_Pattern_Swatch_4-123);}.cls-8{fill:url(#New_Pattern_Swatch_4-125);}.cls-9{fill:url(#New_Pattern_Swatch_4-129);}.cls-10{fill:url(#New_Pattern_Swatch_4-131);}</style><pattern id="New_Pattern_Swatch_4" data-name="New Pattern Swatch 4" width="70" height="70" patternUnits="userSpaceOnUse" viewBox="0 0 70 70"><rect class="cls-1" width="70" height="70"/><line class="cls-2" y1="70" x2="70" y2="70"/><line class="cls-2" y1="30" x2="70" y2="30"/><line class="cls-2" y1="40" x2="70" y2="40"/><line class="cls-2" y1="50" x2="70" y2="50"/><line class="cls-2" y1="60" x2="70" y2="60"/><line class="cls-2" y1="70" x2="70" y2="70"/><line class="cls-2" y1="20" x2="70" y2="20"/><line class="cls-2" y1="10" x2="70" y2="10"/><line class="cls-2" x2="70"/><line class="cls-2" y1="35" x2="70" y2="35"/><line class="cls-2" y1="45" x2="70" y2="45"/><line class="cls-2" y1="55" x2="70" y2="55"/><line class="cls-2" y1="65" x2="70" y2="65"/><line class="cls-2" y1="25" x2="70" y2="25"/><line class="cls-2" y1="15" x2="70" y2="15"/><line class="cls-2" y1="5" x2="70" y2="5"/><line class="cls-2" x2="70"/></pattern><pattern id="New_Pattern_Swatch_4-119" data-name="New Pattern Swatch 4" width="70" height="70" patternTransform="translate(0 5)" patternUnits="userSpaceOnUse" viewBox="0 0 70 70"><rect class="cls-1" width="70" height="70"/><line class="cls-2" y1="70" x2="70" y2="70"/><line class="cls-2" y1="30" x2="70" y2="30"/><line class="cls-2" y1="40" x2="70" y2="40"/><line class="cls-2" y1="50" x2="70" y2="50"/><line class="cls-2" y1="60" x2="70" y2="60"/><line class="cls-2" y1="70" x2="70" y2="70"/><line class="cls-2" y1="20" x2="70" y2="20"/><line class="cls-2" y1="10" x2="70" y2="10"/><line class="cls-2" x2="70"/><line class="cls-2" y1="35" x2="70" y2="35"/><line class="cls-2" y1="45" x2="70" y2="45"/><line class="cls-2" y1="55" x2="70" y2="55"/><line class="cls-2" y1="65" x2="70" y2="65"/><line class="cls-2" y1="25" x2="70" y2="25"/><line class="cls-2" y1="15" x2="70" y2="15"/><line class="cls-2" y1="5" x2="70" y2="5"/><line class="cls-2" x2="70"/></pattern><pattern id="New_Pattern_Swatch_4-123" data-name="New Pattern Swatch 4" width="70" height="70" patternTransform="translate(0 4)" patternUnits="userSpaceOnUse" viewBox="0 0 70 70"><rect class="cls-1" width="70" height="70"/><line class="cls-2" y1="70" x2="70" y2="70"/><line class="cls-2" y1="30" x2="70" y2="30"/><line class="cls-2" y1="40" x2="70" y2="40"/><line class="cls-2" y1="50" x2="70" y2="50"/><line class="cls-2" y1="60" x2="70" y2="60"/><line class="cls-2" y1="70" x2="70" y2="70"/><line class="cls-2" y1="20" x2="70" y2="20"/><line class="cls-2" y1="10" x2="70" y2="10"/><line class="cls-2" x2="70"/><line class="cls-2" y1="35" x2="70" y2="35"/><line class="cls-2" y1="45" x2="70" y2="45"/><line class="cls-2" y1="55" x2="70" y2="55"/><line class="cls-2" y1="65" x2="70" y2="65"/><line class="cls-2" y1="25" x2="70" y2="25"/><line class="cls-2" y1="15" x2="70" y2="15"/><line class="cls-2" y1="5" x2="70" y2="5"/><line class="cls-2" x2="70"/></pattern><pattern id="New_Pattern_Swatch_4-125" data-name="New Pattern Swatch 4" width="70" height="70" patternTransform="translate(0 3)" patternUnits="userSpaceOnUse" viewBox="0 0 70 70"><rect class="cls-1" width="70" height="70"/><line class="cls-2" y1="70" x2="70" y2="70"/><line class="cls-2" y1="30" x2="70" y2="30"/><line class="cls-2" y1="40" x2="70" y2="40"/><line class="cls-2" y1="50" x2="70" y2="50"/><line class="cls-2" y1="60" x2="70" y2="60"/><line class="cls-2" y1="70" x2="70" y2="70"/><line class="cls-2" y1="20" x2="70" y2="20"/><line class="cls-2" y1="10" x2="70" y2="10"/><line class="cls-2" x2="70"/><line class="cls-2" y1="35" x2="70" y2="35"/><line class="cls-2" y1="45" x2="70" y2="45"/><line class="cls-2" y1="55" x2="70" y2="55"/><line class="cls-2" y1="65" x2="70" y2="65"/><line class="cls-2" y1="25" x2="70" y2="25"/><line class="cls-2" y1="15" x2="70" y2="15"/><line class="cls-2" y1="5" x2="70" y2="5"/><line class="cls-2" x2="70"/></pattern><pattern id="New_Pattern_Swatch_4-129" data-name="New Pattern Swatch 4" width="70" height="70" patternTransform="translate(0 2)" patternUnits="userSpaceOnUse" viewBox="0 0 70 70"><rect class="cls-1" width="70" height="70"/><line class="cls-2" y1="70" x2="70" y2="70"/><line class="cls-2" y1="30" x2="70" y2="30"/><line class="cls-2" y1="40" x2="70" y2="40"/><line class="cls-2" y1="50" x2="70" y2="50"/><line class="cls-2" y1="60" x2="70" y2="60"/><line class="cls-2" y1="70" x2="70" y2="70"/><line class="cls-2" y1="20" x2="70" y2="20"/><line class="cls-2" y1="10" x2="70" y2="10"/><line class="cls-2" x2="70"/><line class="cls-2" y1="35" x2="70" y2="35"/><line class="cls-2" y1="45" x2="70" y2="45"/><line class="cls-2" y1="55" x2="70" y2="55"/><line class="cls-2" y1="65" x2="70" y2="65"/><line class="cls-2" y1="25" x2="70" y2="25"/><line class="cls-2" y1="15" x2="70" y2="15"/><line class="cls-2" y1="5" x2="70" y2="5"/><line class="cls-2" x2="70"/></pattern><pattern id="New_Pattern_Swatch_4-131" data-name="New Pattern Swatch 4" width="70" height="70" patternTransform="translate(0 1)" patternUnits="userSpaceOnUse" viewBox="0 0 70 70"><rect class="cls-1" width="70" height="70"/><line class="cls-2" y1="70" x2="70" y2="70"/><line class="cls-2" y1="30" x2="70" y2="30"/><line class="cls-2" y1="40" x2="70" y2="40"/><line class="cls-2" y1="50" x2="70" y2="50"/><line class="cls-2" y1="60" x2="70" y2="60"/><line class="cls-2" y1="70" x2="70" y2="70"/><line class="cls-2" y1="20" x2="70" y2="20"/><line class="cls-2" y1="10" x2="70" y2="10"/><line class="cls-2" x2="70"/><line class="cls-2" y1="35" x2="70" y2="35"/><line class="cls-2" y1="45" x2="70" y2="45"/><line class="cls-2" y1="55" x2="70" y2="55"/><line class="cls-2" y1="65" x2="70" y2="65"/><line class="cls-2" y1="25" x2="70" y2="25"/><line class="cls-2" y1="15" x2="70" y2="15"/><line class="cls-2" y1="5" x2="70" y2="5"/><line class="cls-2" x2="70"/></pattern></defs><title>Asset 7</title><g id="Layer_2" data-name="Layer 2"><g id="Layer_1-2" data-name="Layer 1"><polygon class="cls-3" points="78.52 182.27 52.46 227.45 26.39 182.27 52.46 137.09 78.52 182.27"/><polygon class="cls-3" points="52.34 227.42 0.5 227.41 0.5 182.25 26.25 182.26 52.34 227.42"/><polygon class="cls-3" points="52.34 137.04 26.25 182.2 0.5 182.21 0.5 137.05 52.34 137.04"/><polygon class="cls-3" points="78.52 91.8 52.46 136.98 26.39 91.8 52.46 46.62 78.52 91.8"/><polygon class="cls-3" points="52.34 136.95 0.5 136.94 0.5 91.78 26.25 91.79 52.34 136.95"/><polygon class="cls-3" points="52.34 46.56 26.25 91.73 0.5 91.73 0.5 46.58 52.34 46.56"/><polygon class="cls-3" points="78.52 1.33 52.46 46.51 26.39 1.33 26.87 0.5 78.04 0.5 78.52 1.33"/><polygon class="cls-3" points="52.34 46.48 0.5 46.46 0.5 1.31 26.25 1.31 52.34 46.48"/><polygon class="cls-3" points="26.68 0.5 26.25 1.25 0.5 1.26 0.5 0.5 26.68 0.5"/><polygon class="cls-3" points="156.89 227.51 130.82 272.69 104.76 227.51 130.82 182.33 156.89 227.51"/><polygon class="cls-3" points="104.62 227.5 130.71 272.66 78.55 272.65 52.46 227.48 104.62 227.5"/><polygon class="cls-3" points="104.62 227.44 130.71 182.27 78.55 182.29 52.46 227.45 104.62 227.44"/><polygon class="cls-3" points="156.89 137.04 130.82 182.22 104.76 137.04 130.82 91.86 156.89 137.04"/><polygon class="cls-3" points="104.62 137.02 130.71 182.19 78.55 182.17 52.46 137.01 104.62 137.02"/><polygon class="cls-3" points="104.62 136.96 130.71 91.8 78.55 91.81 52.46 136.98 104.62 136.96"/><polygon class="cls-3" points="156.89 46.56 130.82 91.74 104.76 46.56 130.82 1.38 156.89 46.56"/><polygon class="cls-3" points="104.62 46.55 130.71 91.71 78.55 91.7 52.46 46.53 104.62 46.55"/><polygon class="cls-3" points="104.62 46.49 130.71 1.32 78.55 1.34 52.46 46.51 104.62 46.49"/><polygon class="cls-3" points="235.26 182.27 209.19 227.45 183.13 182.27 209.19 137.09 235.26 182.27"/><polygon class="cls-4" points="182.99 182.26 209.08 227.43 156.92 227.41 130.82 182.24 182.99 182.26"/><polygon class="cls-5" points="182.99 182.2 209.08 137.04 156.92 137.05 130.82 182.22 182.99 182.2"/><polygon class="cls-3" points="235.26 91.8 209.19 136.98 183.13 91.8 209.19 46.62 235.26 91.8"/><polygon class="cls-3" points="182.99 91.79 209.08 136.95 156.92 136.94 130.82 91.77 182.99 91.79"/><polygon class="cls-3" points="182.99 91.73 209.08 46.56 156.92 46.58 130.82 91.74 182.99 91.73"/><polygon class="cls-3" points="235.26 1.33 209.19 46.51 183.13 1.33 183.61 0.5 234.78 0.5 235.26 1.33"/><polygon class="cls-3" points="182.99 1.31 209.08 46.48 156.92 46.46 130.82 1.3 182.99 1.31"/><polygon class="cls-3" points="183.42 0.5 182.99 1.25 130.82 1.27 131.26 0.5 183.42 0.5"/><polygon class="cls-3" points="313.63 227.51 287.56 272.69 261.49 227.51 287.56 182.33 313.63 227.51"/><polygon class="cls-3" points="261.35 227.5 287.45 272.66 235.29 272.65 209.19 227.48 261.35 227.5"/><polygon class="cls-3" points="261.35 227.44 287.45 182.27 235.29 182.29 209.19 227.45 261.35 227.44"/><polygon class="cls-3" points="313.63 137.04 287.56 182.22 261.49 137.04 287.56 91.86 313.63 137.04"/><polygon class="cls-3" points="261.35 137.02 287.45 182.19 235.29 182.17 209.19 137.01 261.35 137.02"/><polygon class="cls-3" points="261.35 136.96 287.45 91.8 235.29 91.81 209.19 136.98 261.35 136.96"/><polygon class="cls-3" points="313.63 46.56 287.56 91.74 261.49 46.56 287.56 1.38 313.63 46.56"/><polygon class="cls-3" points="261.35 46.55 287.45 91.71 235.29 91.7 209.19 46.53 261.35 46.55"/><polygon class="cls-3" points="261.35 46.49 287.45 1.32 235.29 1.34 209.19 46.51 261.35 46.49"/><polygon class="cls-3" points="392.63 182.27 366.57 227.45 340.5 182.27 366.57 137.09 392.63 182.27"/><polygon class="cls-3" points="340.36 182.26 366.45 227.43 314.29 227.41 288.2 182.24 340.36 182.26"/><polygon class="cls-3" points="340.36 182.2 366.45 137.04 314.29 137.05 288.2 182.22 340.36 182.2"/><polygon class="cls-3" points="392.63 91.8 366.57 136.98 340.5 91.8 366.57 46.62 392.63 91.8"/><polygon class="cls-4" points="340.36 91.79 366.45 136.95 314.29 136.94 288.2 91.77 340.36 91.79"/><polygon class="cls-5" points="340.36 91.73 366.45 46.56 314.29 46.58 288.2 91.74 340.36 91.73"/><polygon class="cls-3" points="392.63 1.33 366.57 46.51 340.5 1.33 340.98 0.5 392.15 0.5 392.63 1.33"/><polygon class="cls-3" points="340.36 1.31 366.45 46.48 314.29 46.46 288.2 1.3 340.36 1.31"/><polygon class="cls-3" points="340.79 0.5 340.36 1.25 288.2 1.27 288.64 0.5 340.79 0.5"/><polygon class="cls-3" points="471 227.51 444.93 272.69 418.87 227.51 444.93 182.33 471 227.51"/><polygon class="cls-3" points="418.73 227.5 444.82 272.66 392.66 272.65 366.57 227.48 418.73 227.5"/><polygon class="cls-3" points="418.73 227.44 444.82 182.27 392.66 182.29 366.57 227.45 418.73 227.44"/><polygon class="cls-3" points="471 137.04 444.93 182.22 418.87 137.04 444.93 91.86 471 137.04"/><polygon class="cls-3" points="418.73 137.02 444.82 182.19 392.66 182.17 366.57 137.01 418.73 137.02"/><polygon class="cls-3" points="418.73 136.96 444.82 91.8 392.66 91.81 366.57 136.98 418.73 136.96"/><polygon class="cls-3" points="471 46.56 444.93 91.74 418.87 46.56 444.93 1.38 471 46.56"/><polygon class="cls-3" points="418.73 46.55 444.82 91.71 392.66 91.7 366.57 46.53 418.73 46.55"/><polygon class="cls-3" points="418.73 46.49 444.82 1.32 392.66 1.34 366.57 46.51 418.73 46.49"/><polygon class="cls-3" points="235.26 272.75 209.19 317.93 183.13 272.75 209.19 227.56 235.26 272.75"/><polygon class="cls-3" points="182.99 272.73 209.08 317.9 156.92 317.88 130.82 272.72 182.99 272.73"/><polygon class="cls-3" points="182.99 272.67 209.08 227.51 156.92 227.53 130.82 272.69 182.99 272.67"/><polygon class="cls-3" points="392.63 272.75 366.57 317.93 340.5 272.75 366.57 227.56 392.63 272.75"/><polygon class="cls-3" points="340.36 272.73 366.45 317.9 314.29 317.88 288.2 272.72 340.36 272.73"/><polygon class="cls-3" points="340.36 272.67 366.45 227.51 314.29 227.53 288.2 272.69 340.36 272.67"/><polygon class="cls-3" points="78.52 272.75 52.46 317.93 26.39 272.75 52.46 227.56 78.52 272.75"/><polygon class="cls-3" points="52.34 317.9 52.3 317.9 0.5 317.88 0.5 272.73 26.25 272.73 52.32 317.87 52.34 317.9"/><polygon class="cls-3" points="52.34 227.51 26.25 272.67 0.5 272.68 0.5 227.53 52.34 227.51"/><polygon class="cls-6" points="156.52 504.27 130.46 549.45 104.39 504.27 130.46 459.09 156.52 504.27"/><polygon class="cls-6" points="104.25 504.26 130.34 549.42 78.18 549.41 52.09 504.24 104.25 504.26"/><polygon class="cls-7" points="104.25 503.2 130.34 458.04 78.18 458.05 52.09 503.22 104.25 503.2"/><polygon class="cls-8" points="156.52 411.8 130.46 456.98 104.39 411.8 130.46 366.62 156.52 411.8"/><polygon class="cls-8" points="104.25 411.79 130.34 456.95 78.18 456.94 52.09 411.77 104.25 411.79"/><polygon class="cls-9" points="104.25 410.73 130.34 365.56 78.18 365.58 52.09 410.74 104.25 410.73"/><polygon class="cls-10" points="156.52 319.32 130.46 364.51 104.39 319.32 130.46 274.14 156.52 319.32"/><polygon class="cls-10" points="104.25 319.31 130.34 364.48 78.18 364.46 52.09 319.3 104.25 319.31"/><polygon class="cls-3" points="104.25 318.25 130.34 273.09 78.18 273.1 52.09 318.27 104.25 318.25"/><polygon class="cls-6" points="234.88 549.5 182.77 549.5 208.82 504.33 234.88 549.5"/><polygon class="cls-6" points="182.62 549.44 208.71 504.27 156.55 504.29 130.46 549.45 182.62 549.44"/><polygon class="cls-7" points="234.89 458.04 208.82 503.22 182.76 458.04 208.82 412.86 234.89 458.04"/><polygon class="cls-7" points="182.62 458.02 208.71 503.19 156.55 503.17 130.46 458.01 182.62 458.02"/><polygon class="cls-8" points="182.62 456.96 208.71 411.8 156.55 411.81 130.46 456.98 182.62 456.96"/><polygon class="cls-9" points="234.89 365.56 208.82 410.74 182.76 365.56 208.82 320.38 234.89 365.56"/><polygon class="cls-9" points="182.62 365.55 208.71 410.71 156.55 410.7 130.46 365.53 182.62 365.55"/><polygon class="cls-10" points="182.62 364.49 208.71 319.32 156.55 319.34 130.46 364.51 182.62 364.49"/><polygon class="cls-6" points="313.26 504.27 287.19 549.45 261.13 504.27 287.19 459.09 313.26 504.27"/><polygon class="cls-6" points="260.99 504.26 287.08 549.42 234.92 549.41 208.82 504.24 260.99 504.26"/><polygon class="cls-7" points="260.99 503.2 287.08 458.04 234.92 458.05 208.82 503.22 260.99 503.2"/><polygon class="cls-8" points="313.26 411.8 287.19 456.98 261.13 411.8 287.19 366.62 313.26 411.8"/><polygon class="cls-4" points="260.99 411.79 287.08 456.95 234.92 456.94 208.82 411.77 260.99 411.79"/><polygon class="cls-5" points="260.99 410.73 287.08 365.56 234.92 365.58 208.82 410.74 260.99 410.73"/><polygon class="cls-10" points="314.26 320.32 288.19 365.51 262.13 320.32 288.19 275.14 314.26 320.32"/><polygon class="cls-10" points="260.99 319.31 287.08 364.48 234.92 364.46 208.82 319.3 260.99 319.31"/><polygon class="cls-3" points="261.99 318.25 288.08 273.09 235.92 273.1 209.82 318.27 261.99 318.25"/><polygon class="cls-6" points="391.62 549.5 339.5 549.5 365.56 504.33 391.62 549.5"/><polygon class="cls-6" points="339.35 549.44 365.45 504.27 313.29 504.29 287.19 549.45 339.35 549.44"/><polygon class="cls-7" points="391.63 458.04 365.56 503.22 339.49 458.04 365.56 412.86 391.63 458.04"/><polygon class="cls-7" points="339.35 458.02 365.45 503.19 313.29 503.17 287.19 458.01 339.35 458.02"/><polygon class="cls-8" points="339.35 456.96 365.45 411.8 313.29 411.81 287.19 456.98 339.35 456.96"/><polygon class="cls-9" points="391.63 365.56 365.56 410.74 339.49 365.56 365.56 320.38 391.63 365.56"/><polygon class="cls-9" points="339.35 365.55 365.45 410.71 313.29 410.7 287.19 365.53 339.35 365.55"/><polygon class="cls-10" points="339.35 364.49 365.45 319.32 313.29 319.34 287.19 364.51 339.35 364.49"/><polygon class="cls-6" points="470.63 504.27 444.57 549.45 418.5 504.27 444.57 459.09 470.63 504.27"/><polygon class="cls-6" points="418.36 504.26 444.45 549.42 392.29 549.41 366.2 504.24 418.36 504.26"/><polygon class="cls-7" points="418.36 503.2 444.45 458.04 392.29 458.05 366.2 503.22 418.36 503.2"/><polygon class="cls-8" points="470.63 411.8 444.57 456.98 418.5 411.8 444.57 366.62 470.63 411.8"/><polygon class="cls-8" points="418.36 411.79 444.45 456.95 392.29 456.94 366.2 411.77 418.36 411.79"/><polygon class="cls-9" points="418.36 410.73 444.45 365.56 392.29 365.58 366.2 410.74 418.36 410.73"/><polygon class="cls-10" points="470.63 319.32 444.57 364.51 418.5 319.32 444.57 274.14 470.63 319.32"/><polygon class="cls-10" points="418.36 319.31 444.45 364.48 392.29 364.46 366.2 319.3 418.36 319.31"/><polygon class="cls-3" points="418.36 318.25 444.45 273.09 392.29 273.1 366.2 318.27 418.36 318.25"/><polygon class="cls-3" points="550.26 182.27 524.19 227.45 498.13 182.27 524.19 137.09 550.26 182.27"/><polygon class="cls-3" points="497.99 182.26 524.08 227.43 471.92 227.41 445.82 182.24 497.99 182.26"/><polygon class="cls-3" points="497.99 182.2 524.08 137.04 471.92 137.05 445.82 182.22 497.99 182.2"/><polygon class="cls-3" points="550.26 91.8 524.19 136.98 498.13 91.8 524.19 46.62 550.26 91.8"/><polygon class="cls-3" points="497.99 91.79 524.08 136.95 471.92 136.94 445.82 91.77 497.99 91.79"/><polygon class="cls-3" points="497.99 91.73 524.08 46.56 471.92 46.58 445.82 91.74 497.99 91.73"/><polygon class="cls-3" points="550.26 1.33 524.19 46.51 498.13 1.33 498.61 0.5 549.78 0.5 550.26 1.33"/><polygon class="cls-3" points="497.99 1.31 524.08 46.48 471.92 46.46 445.82 1.3 497.99 1.31"/><polygon class="cls-3" points="498.42 0.5 497.99 1.25 445.82 1.27 446.26 0.5 498.42 0.5"/><polygon class="cls-3" points="628.63 227.51 602.56 272.69 576.49 227.51 602.56 182.33 628.63 227.51"/><polygon class="cls-3" points="576.35 227.5 602.45 272.66 550.29 272.65 524.19 227.48 576.35 227.5"/><polygon class="cls-3" points="576.35 227.44 602.45 182.27 550.29 182.29 524.19 227.45 576.35 227.44"/><polygon class="cls-3" points="628.63 137.04 602.56 182.22 576.49 137.04 602.56 91.86 628.63 137.04"/><polygon class="cls-3" points="576.35 137.02 602.45 182.19 550.29 182.17 524.19 137.01 576.35 137.02"/><polygon class="cls-3" points="576.35 136.96 602.45 91.8 550.29 91.81 524.19 136.98 576.35 136.96"/><polygon class="cls-3" points="628.63 46.56 602.56 91.74 576.49 46.56 602.56 1.38 628.63 46.56"/><polygon class="cls-4" points="576.35 46.55 602.45 91.71 550.29 91.7 524.19 46.53 576.35 46.55"/><polygon class="cls-5" points="576.35 46.49 602.45 1.32 550.29 1.34 524.19 46.51 576.35 46.49"/><polygon class="cls-3" points="707.63 182.27 681.57 227.45 655.5 182.27 681.57 137.09 707.63 182.27"/><polygon class="cls-3" points="655.36 182.26 681.45 227.43 629.29 227.41 603.2 182.24 655.36 182.26"/><polygon class="cls-3" points="655.36 182.2 681.45 137.04 629.29 137.05 603.2 182.22 655.36 182.2"/><polygon class="cls-3" points="707.63 91.8 681.57 136.98 655.5 91.8 681.57 46.62 707.63 91.8"/><polygon class="cls-3" points="655.36 91.79 681.45 136.95 629.29 136.94 603.2 91.77 655.36 91.79"/><polygon class="cls-3" points="655.36 91.73 681.45 46.56 629.29 46.58 603.2 91.74 655.36 91.73"/><polygon class="cls-3" points="707.63 1.33 681.57 46.51 655.5 1.33 655.98 0.5 707.15 0.5 707.63 1.33"/><polygon class="cls-3" points="655.36 1.31 681.45 46.48 629.29 46.46 603.2 1.3 655.36 1.31"/><polygon class="cls-3" points="655.79 0.5 655.36 1.25 603.2 1.27 603.64 0.5 655.79 0.5"/><polygon class="cls-3" points="759.5 183.08 759.5 271.94 733.87 227.51 759.5 183.08"/><polygon class="cls-3" points="733.73 227.5 759.82 272.66 707.66 272.65 681.57 227.48 733.73 227.5"/><polygon class="cls-3" points="733.73 227.44 759.82 182.27 707.66 182.29 681.57 227.45 733.73 227.44"/><polygon class="cls-3" points="759.5 92.61 759.5 181.47 733.87 137.04 759.5 92.61"/><polygon class="cls-3" points="733.73 137.02 759.82 182.19 707.66 182.17 681.57 137.01 733.73 137.02"/><polygon class="cls-3" points="733.73 136.96 759.82 91.8 707.66 91.81 681.57 136.98 733.73 136.96"/><polygon class="cls-3" points="759.5 2.13 759.5 90.99 733.87 46.56 759.5 2.13"/><polygon class="cls-3" points="733.73 46.55 759.82 91.71 707.66 91.7 681.57 46.53 733.73 46.55"/><polygon class="cls-3" points="733.73 46.49 759.82 1.32 707.66 1.34 681.57 46.51 733.73 46.49"/><polygon class="cls-3" points="550.26 272.75 524.19 317.93 498.13 272.75 524.19 227.56 550.26 272.75"/><polygon class="cls-4" points="497.99 272.73 524.08 317.9 471.92 317.88 445.82 272.72 497.99 272.73"/><polygon class="cls-5" points="497.99 272.67 524.08 227.51 471.92 227.53 445.82 272.69 497.99 272.67"/><polygon class="cls-3" points="707.63 272.75 681.57 317.93 655.5 272.75 681.57 227.56 707.63 272.75"/><polygon class="cls-3" points="655.36 272.73 681.45 317.9 629.29 317.88 603.2 272.72 655.36 272.73"/><polygon class="cls-3" points="655.36 272.67 681.45 227.51 629.29 227.53 603.2 272.69 655.36 272.67"/><polygon class="cls-6" points="549.88 549.5 497.77 549.5 523.82 504.33 549.88 549.5"/><polygon class="cls-6" points="497.62 549.44 523.71 504.27 471.55 504.29 445.46 549.45 497.62 549.44"/><polygon class="cls-7" points="549.89 458.04 523.82 503.22 497.76 458.04 523.82 412.86 549.89 458.04"/><polygon class="cls-7" points="497.62 458.02 523.71 503.19 471.55 503.17 445.46 458.01 497.62 458.02"/><polygon class="cls-8" points="497.62 456.96 523.71 411.8 471.55 411.81 445.46 456.98 497.62 456.96"/><polygon class="cls-9" points="549.89 365.56 523.82 410.74 497.76 365.56 523.82 320.38 549.89 365.56"/><polygon class="cls-9" points="497.62 365.55 523.71 410.71 471.55 410.7 445.46 365.53 497.62 365.55"/><polygon class="cls-10" points="497.62 364.49 523.71 319.32 471.55 319.34 445.46 364.51 497.62 364.49"/><polygon class="cls-6" points="628.26 504.27 602.19 549.45 576.13 504.27 602.19 459.09 628.26 504.27"/><polygon class="cls-4" points="575.99 504.26 602.08 549.42 549.92 549.41 523.83 504.24 575.99 504.26"/><polygon class="cls-5" points="575.99 503.2 602.08 458.04 549.92 458.05 523.83 503.22 575.99 503.2"/><polygon class="cls-8" points="628.26 411.8 602.19 456.98 576.13 411.8 602.19 366.62 628.26 411.8"/><polygon class="cls-8" points="575.99 411.79 602.08 456.95 549.92 456.94 523.83 411.77 575.99 411.79"/><polygon class="cls-9" points="575.99 410.73 602.08 365.56 549.92 365.58 523.83 410.74 575.99 410.73"/><polygon class="cls-10" points="629.26 320.32 603.19 365.51 577.13 320.32 603.19 275.14 629.26 320.32"/><polygon class="cls-10" points="575.99 319.31 602.08 364.48 549.92 364.46 523.83 319.3 575.99 319.31"/><polygon class="cls-3" points="576.99 318.25 603.08 273.09 550.92 273.1 524.83 318.27 576.99 318.25"/><polygon class="cls-6" points="706.62 549.5 654.5 549.5 680.56 504.33 706.62 549.5"/><polygon class="cls-6" points="654.35 549.44 680.45 504.27 628.29 504.29 602.19 549.45 654.35 549.44"/><polygon class="cls-7" points="706.63 458.04 680.56 503.22 654.49 458.04 680.56 412.86 706.63 458.04"/><polygon class="cls-7" points="654.35 458.02 680.45 503.19 628.29 503.17 602.19 458.01 654.35 458.02"/><polygon class="cls-8" points="654.35 456.96 680.45 411.8 628.29 411.81 602.19 456.98 654.35 456.96"/><polygon class="cls-9" points="706.63 365.56 680.56 410.74 654.49 365.56 680.56 320.38 706.63 365.56"/><polygon class="cls-9" points="654.35 365.55 680.45 410.71 628.29 410.7 602.19 365.53 654.35 365.55"/><polygon class="cls-10" points="654.35 364.49 680.45 319.32 628.29 319.34 602.19 364.51 654.35 364.49"/><polygon class="cls-6" points="759.5 459.21 759.5 549.33 733.5 504.27 759.5 459.21"/><polygon class="cls-6" points="733.36 504.26 759.45 549.42 707.29 549.41 681.2 504.24 733.36 504.26"/><polygon class="cls-7" points="733.36 503.2 759.45 458.04 707.29 458.05 681.2 503.22 733.36 503.2"/><polygon class="cls-8" points="759.5 366.74 759.5 456.86 733.5 411.8 759.5 366.74"/><polygon class="cls-8" points="733.36 411.79 759.45 456.95 707.29 456.94 681.2 411.77 733.36 411.79"/><polygon class="cls-9" points="733.36 410.73 759.45 365.56 707.29 365.58 681.2 410.74 733.36 410.73"/><polygon class="cls-10" points="759.5 274.26 759.5 364.39 733.5 319.33 759.5 274.26"/><polygon class="cls-10" points="733.36 319.31 759.45 364.48 707.29 364.46 681.2 319.3 733.36 319.31"/><polygon class="cls-3" points="733.36 318.25 759.45 273.09 707.29 273.1 681.2 318.27 733.36 318.25"/><polygon class="cls-6" points="77.99 549.5 25.88 549.5 51.93 504.33 77.99 549.5"/><polygon class="cls-6" points="51.82 504.27 25.73 549.44 0.5 549.44 0.5 504.29 51.82 504.27"/><polygon class="cls-7" points="78 458.04 51.93 503.22 25.87 458.04 51.93 412.86 78 458.04"/><polygon class="cls-4" points="51.82 503.19 0.5 503.17 0.5 458.02 25.73 458.02 51.82 503.19"/><polygon class="cls-5" points="51.82 411.8 25.73 456.96 0.5 456.97 0.5 411.81 51.82 411.8"/><polygon class="cls-9" points="78 365.56 51.93 410.74 25.87 365.56 51.93 320.38 78 365.56"/><polygon class="cls-9" points="51.82 410.71 0.5 410.7 0.5 365.54 25.73 365.55 51.82 410.71"/><polygon class="cls-10" points="51.82 319.33 25.73 364.49 0.5 364.5 0.5 319.34 51.82 319.33"/></g></g></svg>