<svg xmlns="http://www.w3.org/2000/svg" xmlns:xlink="http://www.w3.org/1999/xlink" viewBox="0 0 801 151.66"><defs><style>.cls-1,.cls-2{fill:none;}.cls-2,.cls-4{stroke:#00329c;stroke-miterlimit:10;}.cls-3{fill:#00329c;}.cls-4{stroke-width:1.01px;fill:url(#New_Pattern_Swatch_4);}.cls-5{fill:#ff5c2c;}</style><pattern id="New_Pattern_Swatch_4" data-name="New Pattern Swatch 4" width="70" height="70" patternTransform="translate(0 -12.76) scale(1 1.01)" patternUnits="userSpaceOnUse" viewBox="0 0 70 70"><rect class="cls-1" width="70" height="70"/><line class="cls-2" y1="70" x2="70" y2="70"/><line class="cls-2" y1="30" x2="70" y2="30"/><line class="cls-2" y1="40" x2="70" y2="40"/><line class="cls-2" y1="50" x2="70" y2="50"/><line class="cls-2" y1="60" x2="70" y2="60"/><line class="cls-2" y1="70" x2="70" y2="70"/><line class="cls-2" y1="20" x2="70" y2="20"/><line class="cls-2" y1="10" x2="70" y2="10"/><line class="cls-2" x2="70"/><line class="cls-2" y1="35" x2="70" y2="35"/><line class="cls-2" y1="45" x2="70" y2="45"/><line class="cls-2" y1="55" x2="70" y2="55"/><line class="cls-2" y1="65" x2="70" y2="65"/><line class="cls-2" y1="25" x2="70" y2="25"/><line class="cls-2" y1="15" x2="70" y2="15"/><line class="cls-2" y1="5" x2="70" y2="5"/><line class="cls-2" x2="70"/></pattern></defs><title>Asset 4</title><g id="Layer_2" data-name="Layer 2"><g id="Layer_1-2" data-name="Layer 1"><polygon class="cls-3" points="0 42 242 150 801 1 0 1 0 42"/><polyline class="cls-4" points="800 1.3 414 0.5 414 151 663 85.22 663.21 110.4 724.97 93.83 725.31 67.45 800.59 47.25"/><polygon class="cls-5" points="0 1 147 62 0 42 0 1"/></g></g></svg>