<svg xmlns="http://www.w3.org/2000/svg" xmlns:xlink="http://www.w3.org/1999/xlink" viewBox="0 0 401 150"><defs><style>.cls-1,.cls-2{fill:none;}.cls-2,.cls-5{stroke:#00329c;stroke-miterlimit:10;}.cls-3{fill:#00329c;}.cls-4{fill:#ff5c2c;}.cls-5{fill:url(#New_Pattern_Swatch_4);}</style><pattern id="New_Pattern_Swatch_4" data-name="New Pattern Swatch 4" width="70" height="70" patternUnits="userSpaceOnUse" viewBox="0 0 70 70"><rect class="cls-1" width="70" height="70"/><line class="cls-2" y1="70" x2="70" y2="70"/><line class="cls-2" y1="30" x2="70" y2="30"/><line class="cls-2" y1="40" x2="70" y2="40"/><line class="cls-2" y1="50" x2="70" y2="50"/><line class="cls-2" y1="60" x2="70" y2="60"/><line class="cls-2" y1="70" x2="70" y2="70"/><line class="cls-2" y1="20" x2="70" y2="20"/><line class="cls-2" y1="10" x2="70" y2="10"/><line class="cls-2" x2="70"/><line class="cls-2" y1="35" x2="70" y2="35"/><line class="cls-2" y1="45" x2="70" y2="45"/><line class="cls-2" y1="55" x2="70" y2="55"/><line class="cls-2" y1="65" x2="70" y2="65"/><line class="cls-2" y1="25" x2="70" y2="25"/><line class="cls-2" y1="15" x2="70" y2="15"/><line class="cls-2" y1="5" x2="70" y2="5"/><line class="cls-2" x2="70"/></pattern></defs><title>Asset 5</title><g id="Layer_2" data-name="Layer 2"><g id="Layer_1-2" data-name="Layer 1"><polygon class="cls-3" points="99 0 0 150 268 101 401 149 279 0 99 0"/><polygon class="cls-4" points="0 0 105 1 153 20 248 0 71.76 66.6 0 150 0 0"/><polygon class="cls-5" points="121 127 371 138 268 101 121 127"/></g></g></svg>